<svg width="180" height="180" viewBox="0 0 180 180" fill="none" xmlns="http://www.w3.org/2000/svg">
  <defs>
    <linearGradient id="bg-gradient-apple" x1="0" y1="0" x2="180" y2="180" gradientUnits="userSpaceOnUse">
      <stop offset="0%" stop-color="#8b5cf6"/>
      <stop offset="100%" stop-color="#9333ea"/>
    </linearGradient>
  </defs>
  <rect width="180" height="180" rx="39" fill="url(#bg-gradient-apple)"/>
  <g transform="translate(43, 43) scale(0.195)" fill="white">
    <path d="M118.632 261.832C97.3947 261.832 79.0237 255.515 63.519 242.879C48.3404 230.244 37.5399 213.376 31.1177 192.275C24.6955 171.501 21.4844 148.576 21.4844 123.501C21.4844 98.4256 24.6955 75.5007 31.1177 54.7267C37.5399 33.6256 48.3404 16.7577 63.519 4.12308C79.0237 -8.18376 97.3947 -14.3372 118.632 -14.3372C128.458 -14.3372 137.794 -13.1744 146.641 -10.8488C155.488 -8.52316 163.683 -5.03445 171.226 -0.382671C179.095 4.2691 186.149 9.90357 192.388 16.5204L166.41 50.5691C159.824 44.7417 152.607 40.4159 144.76 37.5918C136.913 34.7676 128.295 33.3555 118.906 33.3555C104.889 33.3555 93.2781 36.6815 84.1049 43.3335C75.2577 49.9855 68.6726 59.4748 64.3495 71.8015C60.0265 84.1282 57.8649 98.7516 57.8649 115.672V131.331C57.8649 148.251 60.0265 162.875 64.3495 175.202C68.6726 187.528 75.2577 197.018 84.1049 203.67C93.2781 210.322 104.889 213.648 118.906 213.648C128.295 213.648 136.913 212.236 144.76 209.412C152.607 206.588 159.824 202.262 166.41 196.434L192.388 230.483C186.149 237.1 179.095 242.734 171.226 247.386C163.683 252.038 155.488 255.527 146.641 257.852C137.794 260.178 128.458 261.505 118.632 261.505V261.832Z"/>
    <path d="M295.412 261.832C282.256 261.832 270.156 259.67 259.112 255.344C248.394 251.018 239.22 244.693 231.59 236.367C224.286 227.715 218.851 217.063 215.284 204.411C211.717 191.759 209.934 177.271 209.934 160.946V2.12308H246.232V160.946C246.232 175.365 248.72 186.669 253.696 194.857C258.998 202.72 267.009 206.651 277.729 206.651C284.743 206.651 291.002 205.239 296.507 202.415C302.011 199.591 306.76 195.843 310.757 191.17L327.561 220.482C321.322 227.715 313.475 233.38 304.019 237.48C294.89 241.579 285.112 243.628 274.686 243.628L295.412 261.505V261.832Z"/>
    <path d="M454.691 257.852C448.452 259.507 441.6 260.66 434.133 261.341C426.992 261.995 419.851 262.322 412.71 262.322C389.624 262.322 371.09 256.496 357.073 244.857C343.056 233.217 336.047 216.676 336.047 195.234V87.1155H305.926V47.4189H336.047V0H372.345V47.4189H425.56V87.1155H372.345V195.234C372.345 203.422 374.507 209.575 378.83 213.648C383.153 217.721 389.298 219.758 397.308 219.758C401.305 219.758 405.139 219.267 408.869 218.258C412.926 217.249 416.656 215.913 420.06 214.337L430.3 252.038C425.977 254.2 421.165 256.034 415.823 257.525L454.691 257.852Z"/>
  </g>
</svg>
