<svg width="512" height="512" viewBox="0 0 512 512" fill="none" xmlns="http://www.w3.org/2000/svg">
  <!-- Dark background -->
  <rect width="512" height="512" rx="112" fill="#09090b"/>

  <!-- Logo with gradient -->
  <g transform="translate(123, 123) scale(0.56)">
    <defs>
      <linearGradient id="logo-gradient-512" x1="0%" y1="0%" x2="100%" y2="100%">
        <stop offset="0%" stop-color="#a855f7"/>
        <stop offset="50%" stop-color="#d946ef"/>
        <stop offset="100%" stop-color="#06b6d4"/>
      </linearGradient>
    </defs>
    <path d="M250.644 3.44982C251.313 3.80663 251.982 4.16344 252.672 4.53106C253.387 4.90196 254.103 5.27287 254.84 5.65502C257.148 6.85519 259.449 8.06977 261.75 9.28496C263.349 10.1202 264.949 10.9546 266.549 11.7881C270.387 13.79 274.218 15.8029 278.048 17.8204C280.543 19.133 283.042 20.4363 285.543 21.7381C295.994 27.1909 306.37 32.7853 316.757 38.3582C325.82 43.2208 334.901 48.051 344 52.8475C341.56 55.6179 338.99 57.0197 335.688 58.6326C334.622 59.1579 333.557 59.6832 332.459 60.2244C331.318 60.7806 330.176 61.3369 329 61.91C326.614 63.0867 324.228 64.2648 321.844 65.4451C320.671 66.0254 319.498 66.6056 318.289 67.2034C313.99 69.3523 309.74 71.5843 305.5 73.8475C297.06 78.3412 288.52 82.6211 279.947 86.8553C273.573 90.0162 267.264 93.2787 260.977 96.6092C250.86 101.963 240.628 107.074 230.375 112.16C226.902 113.883 223.431 115.608 219.961 117.336C219.192 117.716 218.423 118.096 217.631 118.488C212.947 120.82 208.377 123.291 203.849 125.912C202 126.847 202 126.847 200 126.847C200 127.507 200 128.167 200 128.847C201.152 129.178 201.152 129.178 202.328 129.515C207.345 131.335 211.998 133.742 216.75 136.16C217.688 136.634 218.627 137.107 219.594 137.596C220.527 138.067 221.46 138.538 222.422 139.023C223.813 139.721 223.813 139.721 225.232 140.432C227.077 141.376 228.907 142.35 230.721 143.353C235.632 146.052 235.632 146.052 241.07 146.945C245.208 145.395 249.009 143.415 252.875 141.285C254.583 140.366 256.291 139.448 258 138.531C258.847 138.075 259.694 137.618 260.566 137.148C263.976 135.326 267.416 133.573 270.875 131.847C271.83 131.37 271.83 131.37 272.805 130.884C276.517 129.043 280.249 127.249 283.996 125.48C284.877 125.064 285.759 124.648 286.667 124.219C288.335 123.433 290.005 122.651 291.677 121.875C297.242 119.26 302.684 116.451 308.113 113.57C320.439 107.041 332.875 100.731 345.333 94.4585C349 92.612 352.665 90.7598 356.323 88.8946C359.918 87.0617 363.519 85.2425 367.126 83.433C368.486 82.7477 369.844 82.0575 371.2 81.3624C373.08 80.3993 374.968 79.4541 376.859 78.5127C378.462 77.7019 378.462 77.7019 380.097 76.8748C384.497 75.3177 386.931 76.3621 391.064 78.2393C392.197 78.828 393.329 79.4167 394.496 80.0232C395.118 80.3447 395.74 80.6662 396.381 80.9975C398.403 82.0452 400.42 83.1022 402.438 84.16C403.832 84.8857 405.226 85.6112 406.621 86.3365C435.429 101.354 435.429 101.354 446 107.847C442.9 110.336 439.716 112.099 436.152 113.851C434.405 114.717 434.405 114.717 432.623 115.599C431.395 116.203 430.166 116.807 428.938 117.41C420.86 121.388 412.835 125.439 404.879 129.656C393.796 135.526 382.568 141.096 371.334 146.67C360.963 151.82 350.643 157.044 340.41 162.464C334.979 165.339 329.516 168.136 324 170.847C316.872 174.384 309.808 178.02 302.777 181.746C296.007 185.33 289.206 188.853 282.399 192.367C273.254 197.088 264.112 201.813 255 206.597C254.248 206.991 253.496 207.385 252.721 207.791C251.683 208.337 251.683 208.337 250.625 208.894C249.991 209.225 249.357 209.556 248.703 209.896C246.793 210.92 246.793 210.92 244.375 212.738C242 213.847 242 213.847 239.305 213.355C234.818 211.308 230.47 209.052 226.125 206.722C224.234 205.72 222.342 204.719 220.449 203.719C219.52 203.227 218.591 202.736 217.634 202.23C214.09 200.37 210.521 198.566 206.938 196.785C206.306 196.471 205.674 196.157 205.023 195.833C203.016 194.836 201.008 193.842 199 192.847C195.728 191.226 192.457 189.6 189.188 187.972C188.088 187.429 188.088 187.429 186.967 186.875C181.268 184.038 175.633 181.085 170.004 178.113C160.622 173.161 151.195 168.303 141.75 163.472C140.058 162.606 138.366 161.739 136.673 160.873C133.179 159.083 129.684 157.293 126.188 155.504C118.798 151.72 111.41 147.93 104.023 144.14C90.0779 136.987 76.1309 129.838 62.1826 122.691C60.3691 121.762 58.5556 120.833 56.7422 119.904C54.2228 118.612 51.7032 117.322 49.1836 116.031C48.4416 115.651 47.6997 115.27 46.9353 114.879C42.9674 112.847 38.991 110.834 35 108.847C35 108.187 35 107.527 35 106.847C36.0776 106.29 36.0776 106.29 37.177 105.721C57.0412 95.4396 76.8569 85.08 96.5634 74.4988C107.476 68.6412 118.444 62.8935 129.435 57.1824C139.123 52.1409 148.777 47.0333 158.418 41.9021C160.457 40.8169 162.497 39.7317 164.536 38.6464C165.929 37.9053 167.322 37.1641 168.714 36.4227C177.866 31.5527 187.041 26.7328 196.25 21.9725C204.668 17.621 213.013 13.1598 221.284 8.53545C222.762 7.71158 224.244 6.89482 225.73 6.08574C227.343 5.20567 228.946 4.30499 230.54 3.39043C231.821 2.68854 231.821 2.68854 233.129 1.97246C234.277 1.32664 234.277 1.32664 235.448 0.667776C240.96 -1.10382 245.746 0.934901 250.644 3.44982Z" fill="url(#logo-gradient-512)"/>
    <path d="M0 238.847C3.09426 240.085 5.98302 241.276 8.93799 242.752C9.67711 243.12 10.4162 243.488 11.1778 243.867C12.3621 244.46 12.3621 244.46 13.5703 245.066C14.406 245.484 15.2417 245.901 16.1028 246.331C17.8768 247.218 19.6503 248.105 21.4233 248.994C24.0659 250.318 26.7106 251.638 29.3555 252.957C38.5248 257.54 47.641 262.208 56.7 267.005C65.7438 271.786 74.8625 276.42 83.9797 281.06C89.147 283.69 94.3119 286.325 99.4766 288.961C100.483 289.474 101.49 289.988 102.527 290.517C116.674 297.74 130.803 305.001 144.823 312.466C145.604 312.881 146.384 313.295 147.188 313.722C147.764 314.03 148.341 314.337 148.936 314.653C153.406 317.026 157.906 319.328 162.438 321.582C163.123 321.924 163.808 322.265 164.514 322.618C166.676 323.695 168.838 324.771 171 325.847C172.39 326.54 173.781 327.232 175.171 327.924C175.857 328.266 176.543 328.607 177.25 328.959C205.216 342.885 205.216 342.885 215.75 348.472C216.842 349.05 216.842 349.05 217.957 349.639C220.657 351.068 223.355 352.5 226.044 353.949C227.981 354.991 229.927 356.015 231.875 357.035C232.945 357.606 234.015 358.177 235.117 358.765C238.97 360.211 241.398 359.511 245.144 357.959C245.857 357.601 246.57 357.242 247.305 356.873C248.124 356.465 248.944 356.057 249.788 355.636C250.665 355.192 251.542 354.747 252.445 354.289C253.832 353.594 253.832 353.594 255.247 352.885C257.21 351.9 259.172 350.912 261.132 349.922C264.063 348.441 266.998 346.969 269.934 345.498C279.789 340.55 289.59 335.513 299.336 330.352C305.935 326.864 312.593 323.507 319.283 320.197C329.23 315.273 339.12 310.267 348.899 305.019C352.532 303.084 356.197 301.226 359.882 299.394C361.298 298.689 362.713 297.983 364.129 297.277C364.904 296.891 365.679 296.505 366.477 296.107C371.278 293.71 376.072 291.299 380.866 288.89C391.637 283.481 402.41 278.077 413.185 272.677C419.677 269.423 426.168 266.167 432.656 262.906C438.36 260.039 444.066 257.177 449.775 254.319C452.785 252.812 455.794 251.303 458.8 249.789C462.136 248.11 465.475 246.439 468.816 244.769C469.808 244.268 470.801 243.766 471.824 243.249C473.184 242.572 473.184 242.572 474.571 241.882C475.359 241.486 476.146 241.091 476.958 240.684C479 239.847 479 239.847 482 239.847C482 260.967 482 282.087 482 303.847C458.188 315.722 458.188 315.722 450.802 319.402C439.466 325.058 428.189 330.803 416.997 336.739C412.042 339.363 407.031 341.87 402 344.347C394.288 348.174 386.646 352.111 379.043 356.148C372.574 359.572 366.036 362.845 359.48 366.098C353.777 368.936 348.127 371.861 342.5 374.847C336.044 378.273 329.547 381.599 323 384.847C316.828 387.91 310.704 391.041 304.625 394.285C293.103 400.424 281.384 406.182 269.69 411.984C268.895 412.379 268.101 412.774 267.282 413.182C265.715 413.961 264.147 414.738 262.578 415.513C259.06 417.263 255.59 419.05 252.19 421.022C251.063 421.672 249.935 422.322 248.773 422.992C247.816 423.569 246.859 424.146 245.873 424.741C241.524 426.416 238.013 425.634 233.745 423.966C232.746 423.42 232.746 423.42 231.727 422.863C230.923 422.433 230.118 422.003 229.29 421.56C228.411 421.077 227.531 420.595 226.625 420.097C224.592 419.009 222.558 417.923 220.523 416.84C218.781 415.909 218.781 415.909 217.003 414.96C208.805 410.613 200.516 406.439 192.25 402.222C180.582 396.27 168.947 390.263 157.363 384.147C151.385 380.992 145.382 377.886 139.375 374.785C138.159 374.157 136.943 373.528 135.728 372.9C128.955 369.4 122.178 365.909 115.398 362.422C113.232 361.307 111.066 360.193 108.899 359.078C107.469 358.342 106.039 357.607 104.609 356.871C96.862 352.885 89.1244 348.885 81.4375 344.785C74.5305 341.103 67.5514 337.583 60.5391 334.107C40.1763 324.008 19.9572 313.733 0 302.847C0 281.727 0 260.607 0 238.847Z" fill="url(#logo-gradient-512)"/>
    <path d="M0 132.847C4.44429 134.329 8.00563 135.758 12.0859 137.902C13.8351 138.815 13.8351 138.815 15.6196 139.747C16.2317 140.069 16.8438 140.391 17.4744 140.723C20.7228 142.431 23.9787 144.125 27.2344 145.82C28.22 146.334 28.22 146.334 29.2256 146.858C36.1947 150.482 43.2213 153.989 50.2671 157.462C57.0744 160.834 63.7943 164.359 70.511 167.907C79.2201 172.502 87.9815 176.992 96.75 181.472C98.5075 182.372 100.265 183.271 102.022 184.17C111.71 189.126 121.401 194.074 131.094 199.019C135.146 201.087 139.198 203.155 143.25 205.222C144.254 205.735 145.259 206.248 146.294 206.776C157.836 212.666 169.37 218.571 180.875 224.535C182.496 225.373 182.496 225.373 184.15 226.228C189.464 228.976 194.775 231.729 200.078 234.497C204.741 236.931 209.409 239.355 214.081 241.772C215.927 242.73 217.771 243.692 219.613 244.658C222.193 246.009 224.779 247.348 227.367 248.683C228.136 249.09 228.904 249.496 229.696 249.915C234.122 252.181 237.93 253.774 243 253.847C245.569 252.951 247.651 252.063 250.016 250.797C250.665 250.467 251.314 250.138 251.983 249.798C254.081 248.727 256.165 247.632 258.25 246.535C259.699 245.789 261.148 245.045 262.598 244.302C266.123 242.491 269.636 240.661 273.145 238.82C275.67 237.496 278.2 236.184 280.73 234.871C285.168 232.557 289.587 230.208 294 227.847C296.187 226.68 298.375 225.515 300.565 224.351C301.884 223.65 303.202 222.946 304.519 222.24C309.076 219.814 313.684 217.495 318.303 215.191C319.743 214.472 321.183 213.753 322.623 213.034C323.353 212.669 324.084 212.304 324.836 211.928C328.145 210.275 331.451 208.618 334.757 206.961C341.147 203.758 347.537 200.557 353.928 197.358C357.75 195.444 361.572 193.529 365.393 191.613C396.466 176.032 396.466 176.032 410.246 169.613C416.258 166.806 422.171 163.799 428.093 160.809C431.181 159.252 434.276 157.709 437.371 156.164C442.481 153.612 447.586 151.051 452.686 148.479C455.664 146.977 458.644 145.479 461.624 143.981C463.15 143.212 464.676 142.442 466.202 141.671C468.442 140.539 470.686 139.411 472.93 138.285C473.613 137.938 474.296 137.591 475 137.234C479.772 134.847 479.772 134.847 482 134.847C482 155.967 482 177.087 482 198.847C478.04 200.497 474.08 202.147 470 203.847C467.084 205.312 464.217 206.795 461.355 208.355C450.617 214.102 439.731 219.539 428.83 224.97C425.218 226.769 421.608 228.571 417.997 230.374C409.685 234.524 401.371 238.67 393.057 242.816C385.42 246.625 377.782 250.434 370.147 254.247C366.013 256.312 361.877 258.372 357.741 260.433C346.412 266.085 335.135 271.813 323.957 277.759C318.977 280.403 313.929 282.907 308.876 285.409C304.273 287.701 299.694 290.036 295.114 292.373C289.664 295.153 284.207 297.92 278.747 300.681C275.181 302.485 271.619 304.295 268.063 306.118C264.576 307.905 261.082 309.676 257.582 311.436C256.261 312.104 254.943 312.777 253.627 313.457C251.798 314.4 249.96 315.323 248.119 316.242C247.079 316.771 246.039 317.3 244.968 317.845C240.721 319.28 237.678 318.522 233.601 316.883C232.832 316.491 232.062 316.099 231.27 315.695C230.382 315.247 229.494 314.799 228.58 314.338C227.667 313.866 226.753 313.395 225.812 312.91C224.949 312.474 224.086 312.037 223.197 311.588C217.142 308.51 211.136 305.339 205.129 302.168C195.46 297.065 185.732 292.082 175.99 287.12C171.06 284.608 166.131 282.091 161.203 279.574C160.234 279.079 159.265 278.584 158.267 278.074C142.358 269.947 126.481 261.758 110.688 253.41C102.521 249.094 94.2777 244.946 86 240.847C75.4087 235.598 64.8666 230.283 54.4265 224.739C46.9959 220.809 39.4746 217.07 31.9473 213.331C23.1646 208.956 14.4733 204.421 5.81738 199.802C3.89194 198.791 1.94529 197.82 0 196.847C0 175.727 0 154.607 0 132.847Z" fill="url(#logo-gradient-512)"/>
    <path d="M0 344.847C7.92 348.807 7.92 348.807 16 352.847C18.4608 354.072 20.9216 355.297 23.457 356.558C37.3913 363.495 51.2707 370.511 65 377.847C67.189 379.015 69.3785 380.182 71.5691 381.346C72.8868 382.047 74.2035 382.749 75.5188 383.454C80.15 385.92 84.8353 388.273 89.5312 390.613C97.661 394.664 105.742 398.804 113.812 402.972C115.249 403.713 116.685 404.454 118.122 405.195C122.415 407.411 126.708 409.629 131 411.847C131.644 412.18 132.288 412.513 132.952 412.856C137.094 414.997 141.235 417.14 145.375 419.285C146.375 419.803 147.375 420.32 148.406 420.854C153.835 423.67 159.253 426.506 164.661 429.361C175.232 434.94 185.855 440.411 196.5 445.847C206.533 450.971 216.555 456.114 226.531 461.347C227.337 461.769 228.143 462.19 228.973 462.625C229.72 463.018 230.467 463.411 231.236 463.816C231.893 464.161 232.549 464.506 233.225 464.861C234.866 465.773 236.438 466.806 238 467.847C242.654 467.542 246.608 465.243 250.695 463.164C251.806 462.607 251.806 462.607 252.939 462.04C255.337 460.836 257.731 459.623 260.125 458.41C261.782 457.575 263.439 456.741 265.096 455.907C274.513 451.159 283.893 446.347 293.203 441.39C299.507 438.037 305.847 434.755 312.188 431.472C312.809 431.151 313.43 430.829 314.07 430.498C323.546 425.594 333.07 420.794 342.624 416.044C349.183 412.776 355.684 409.415 362.158 405.982C370.139 401.757 378.16 397.61 386.188 393.472C386.902 393.104 387.616 392.736 388.353 392.356C398.461 387.149 408.606 382.023 418.788 376.962C429.239 371.756 439.58 366.339 449.84 360.765C456.91 356.933 464.053 353.309 471.312 349.847C472.144 349.449 472.975 349.051 473.832 348.64C474.605 348.275 475.379 347.911 476.176 347.535C476.866 347.209 477.556 346.883 478.267 346.547C480 345.847 480 345.847 482 345.847C482 366.637 482 387.427 482 408.847C473.42 413.137 464.84 417.427 456 421.847C448.824 425.607 448.824 425.607 441.661 429.39C433.894 433.501 426.053 437.469 418.223 441.459C413.285 443.975 408.35 446.495 403.414 449.015C402.433 449.516 401.452 450.017 400.442 450.533C391.868 454.911 383.306 459.31 374.75 463.722C374.092 464.062 373.434 464.401 372.756 464.751C369.481 466.44 366.206 468.129 362.932 469.819C356.813 472.976 350.692 476.128 344.572 479.28C342.512 480.341 340.453 481.402 338.394 482.463C332.115 485.698 325.836 488.932 319.556 492.163C300.32 502.059 300.32 502.059 281.125 512.035C279.796 512.729 279.796 512.729 278.44 513.438C276.624 514.387 274.807 515.336 272.991 516.285C267.691 519.053 262.39 521.82 257.085 524.579C255.872 525.211 254.659 525.844 253.446 526.477C251.762 527.356 250.076 528.233 248.391 529.109C246.937 529.866 246.937 529.866 245.454 530.639C243 531.847 243 531.847 240 532.847C237.671 531.787 235.527 530.675 233.312 529.41C231.94 528.652 230.566 527.895 229.191 527.14C228.489 526.753 227.787 526.365 227.063 525.966C223.998 524.304 220.878 522.761 217.75 521.222C200.978 512.916 184.442 504.129 167.854 495.462C159.998 491.36 152.125 487.29 144.25 483.222C136.318 479.126 128.393 475.019 120.5 470.847C102.897 461.548 85.1719 452.479 67.4721 443.365C63.3084 441.221 59.1452 439.076 54.9822 436.93C51.7449 435.262 48.5074 433.594 45.269 431.927C41.7819 430.133 38.2971 428.334 34.8125 426.535C33.3485 425.783 33.3485 425.783 31.855 425.015C21.1331 419.47 10.6064 413.633 0 407.847C0 387.057 0 366.267 0 344.847Z" fill="url(#logo-gradient-512)"/>
  </g>
</svg>
